<mxfile host="app.diagrams.net" agent="Mozilla/5.0 (Windows NT 10.0; Win64; x64) AppleWebKit/537.36 (KHTML, like Gecko) Chrome/131.0.0.0 Safari/537.36" version="25.0.1">
  <diagram id="C5RBs43oDa-KdzZeNtuy" name="Page-1">
    <mxGraphModel dx="1404" dy="557" grid="1" gridSize="10" guides="1" tooltips="1" connect="1" arrows="1" fold="1" page="1" pageScale="1" pageWidth="827" pageHeight="1169" math="0" shadow="0">
      <root>
        <mxCell id="WIyWlLk6GJQsqaUBKTNV-0" />
        <mxCell id="WIyWlLk6GJQsqaUBKTNV-1" parent="WIyWlLk6GJQsqaUBKTNV-0" />
        <mxCell id="NJiTiichbfXBZnAp8Gvq-6" style="edgeStyle=orthogonalEdgeStyle;rounded=0;orthogonalLoop=1;jettySize=auto;html=1;exitX=0.5;exitY=1;exitDx=0;exitDy=0;exitPerimeter=0;entryX=0.5;entryY=0;entryDx=0;entryDy=0;" edge="1" parent="WIyWlLk6GJQsqaUBKTNV-1" source="NJiTiichbfXBZnAp8Gvq-0" target="NJiTiichbfXBZnAp8Gvq-1">
          <mxGeometry relative="1" as="geometry" />
        </mxCell>
        <mxCell id="NJiTiichbfXBZnAp8Gvq-0" value="START" style="strokeWidth=2;html=1;shape=mxgraph.flowchart.start_1;whiteSpace=wrap;" vertex="1" parent="WIyWlLk6GJQsqaUBKTNV-1">
          <mxGeometry x="360" y="80" width="100" height="60" as="geometry" />
        </mxCell>
        <mxCell id="NJiTiichbfXBZnAp8Gvq-7" style="edgeStyle=orthogonalEdgeStyle;rounded=0;orthogonalLoop=1;jettySize=auto;html=1;exitX=0.5;exitY=1;exitDx=0;exitDy=0;entryX=0.5;entryY=0;entryDx=0;entryDy=0;" edge="1" parent="WIyWlLk6GJQsqaUBKTNV-1" source="NJiTiichbfXBZnAp8Gvq-1" target="NJiTiichbfXBZnAp8Gvq-2">
          <mxGeometry relative="1" as="geometry" />
        </mxCell>
        <mxCell id="NJiTiichbfXBZnAp8Gvq-1" value="READ NUMBER" style="shape=parallelogram;html=1;strokeWidth=2;perimeter=parallelogramPerimeter;whiteSpace=wrap;rounded=1;arcSize=12;size=0.23;" vertex="1" parent="WIyWlLk6GJQsqaUBKTNV-1">
          <mxGeometry x="305" y="180" width="210" height="60" as="geometry" />
        </mxCell>
        <mxCell id="NJiTiichbfXBZnAp8Gvq-11" style="edgeStyle=orthogonalEdgeStyle;rounded=0;orthogonalLoop=1;jettySize=auto;html=1;exitX=0.5;exitY=1;exitDx=0;exitDy=0;entryX=0.5;entryY=0;entryDx=0;entryDy=0;" edge="1" parent="WIyWlLk6GJQsqaUBKTNV-1" source="NJiTiichbfXBZnAp8Gvq-2" target="NJiTiichbfXBZnAp8Gvq-10">
          <mxGeometry relative="1" as="geometry" />
        </mxCell>
        <mxCell id="NJiTiichbfXBZnAp8Gvq-2" value="RESULT = NUMBER / 2&lt;div&gt;&lt;br&gt;&lt;/div&gt;&lt;div&gt;R = &quot;HALF OF THE &quot; + NUMBER + &quot; IS &quot; + RESULT&amp;nbsp;&amp;nbsp;&lt;/div&gt;" style="rounded=1;whiteSpace=wrap;html=1;absoluteArcSize=1;arcSize=14;strokeWidth=2;" vertex="1" parent="WIyWlLk6GJQsqaUBKTNV-1">
          <mxGeometry x="212.5" y="310" width="395" height="70" as="geometry" />
        </mxCell>
        <mxCell id="NJiTiichbfXBZnAp8Gvq-5" value="END" style="strokeWidth=2;html=1;shape=mxgraph.flowchart.terminator;whiteSpace=wrap;" vertex="1" parent="WIyWlLk6GJQsqaUBKTNV-1">
          <mxGeometry x="360" y="540" width="100" height="60" as="geometry" />
        </mxCell>
        <mxCell id="NJiTiichbfXBZnAp8Gvq-10" value="PRINT R" style="shape=parallelogram;html=1;strokeWidth=2;perimeter=parallelogramPerimeter;whiteSpace=wrap;rounded=1;arcSize=12;size=0.23;" vertex="1" parent="WIyWlLk6GJQsqaUBKTNV-1">
          <mxGeometry x="307.5" y="430" width="205" height="70" as="geometry" />
        </mxCell>
        <mxCell id="NJiTiichbfXBZnAp8Gvq-12" style="edgeStyle=orthogonalEdgeStyle;rounded=0;orthogonalLoop=1;jettySize=auto;html=1;exitX=0.5;exitY=1;exitDx=0;exitDy=0;entryX=0.5;entryY=0;entryDx=0;entryDy=0;entryPerimeter=0;" edge="1" parent="WIyWlLk6GJQsqaUBKTNV-1" source="NJiTiichbfXBZnAp8Gvq-10" target="NJiTiichbfXBZnAp8Gvq-5">
          <mxGeometry relative="1" as="geometry" />
        </mxCell>
      </root>
    </mxGraphModel>
  </diagram>
</mxfile>
